<svg width="151" height="150" viewBox="0 0 151 150" fill="none" xmlns="http://www.w3.org/2000/svg">
<g filter="url(#filter0_d_448_2)">
<path d="M5.86047 60.8489V85.8551H12.1105V123.349H5.86047V142.099H105.86L124.61 142.105L130.86 142.099V123.349H124.61V85.8551H130.86V60.8489L68.3605 23.3489L5.86047 60.8489ZM30.8605 123.349V85.8551H43.3605V123.349H30.8605ZM62.1105 123.349V85.8551H74.6105V123.349H62.1105ZM105.86 123.349H93.3605V85.8551H105.86V123.349ZM80.8605 60.8489C80.8601 62.4908 80.5362 64.1166 79.9075 65.6334C79.2788 67.1502 78.3575 68.5283 77.1962 69.689C76.0349 70.8497 74.6563 71.7704 73.1392 72.3983C71.6221 73.0263 69.9961 73.3493 68.3542 73.3489C66.7123 73.3485 65.0865 73.0247 63.5697 72.3959C62.0529 71.7672 60.6748 70.8459 59.5141 69.6846C58.3534 68.5233 57.4327 67.1447 56.8048 65.6276C56.1768 64.1105 55.8538 62.4846 55.8542 60.8426C55.855 57.5266 57.1731 54.3467 59.5185 52.0025C61.8639 49.6583 65.0444 48.3418 68.3605 48.3426C71.6765 48.3435 74.8564 49.6615 77.2006 52.0069C79.5448 54.3523 80.8613 57.5328 80.8605 60.8489Z" fill="#106D71"/>
</g>
<path d="M12.1395 52.8489V77.8551H18.3895V115.349H12.1395V134.099H112.14L130.89 134.105L137.14 134.099V115.349H130.89V77.8551H137.14V52.8489L74.6395 15.3489L12.1395 52.8489ZM37.1395 115.349V77.8551H49.6395V115.349H37.1395ZM68.3895 115.349V77.8551H80.8895V115.349H68.3895ZM112.14 115.349H99.6395V77.8551H112.14V115.349ZM87.1395 52.8489C87.1391 54.4908 86.8153 56.1166 86.1866 57.6334C85.5579 59.1502 84.6365 60.5283 83.4752 61.689C82.3139 62.8497 80.9353 63.7704 79.4182 64.3983C77.9011 65.0263 76.2752 65.3493 74.6333 65.3489C72.9913 65.3485 71.3656 65.0247 69.8488 64.3959C68.332 63.7672 66.9539 62.8459 65.7931 61.6846C64.6324 60.5233 63.7118 59.1447 63.0838 57.6276C62.4559 56.1105 62.1329 54.4846 62.1333 52.8426C62.1341 49.5266 63.4522 46.3467 65.7976 44.0025C68.1429 41.6583 71.3235 40.3418 74.6395 40.3426C77.9556 40.3435 81.1354 41.6615 83.4797 44.0069C85.8239 46.3523 87.1404 49.5328 87.1395 52.8489Z" fill="#3DA3A7"/>
<defs>
<filter id="filter0_d_448_2" x="5.86047" y="21.3489" width="141" height="126.756" filterUnits="userSpaceOnUse" color-interpolation-filters="sRGB">
<feFlood flood-opacity="0" result="BackgroundImageFix"/>
<feColorMatrix in="SourceAlpha" type="matrix" values="0 0 0 0 0 0 0 0 0 0 0 0 0 0 0 0 0 0 127 0" result="hardAlpha"/>
<feOffset dx="12" dy="2"/>
<feGaussianBlur stdDeviation="2"/>
<feComposite in2="hardAlpha" operator="out"/>
<feColorMatrix type="matrix" values="0 0 0 0 0 0 0 0 0 0 0 0 0 0 0 0 0 0 0.25 0"/>
<feBlend mode="normal" in2="BackgroundImageFix" result="effect1_dropShadow_448_2"/>
<feBlend mode="normal" in="SourceGraphic" in2="effect1_dropShadow_448_2" result="shape"/>
</filter>
</defs>
</svg>
