<svg width="158" height="152" viewBox="0 0 158 152" fill="none" xmlns="http://www.w3.org/2000/svg">
<g clip-path="url(#clip0_401_1067)" filter="url(#filter0_d_401_1067)">
<path fill-rule="evenodd" clip-rule="evenodd" d="M0 40.9598C0 37.1414 1.51686 33.4794 4.21688 30.7794C6.9169 28.0794 10.5789 26.5625 14.3973 26.5625H129.576C133.394 26.5625 137.056 28.0794 139.756 30.7794C142.456 33.4794 143.973 37.1414 143.973 40.9598V117.746C143.973 121.564 142.456 125.226 139.756 127.926C137.056 130.626 133.394 132.143 129.576 132.143H14.3973C10.5789 132.143 6.9169 130.626 4.21688 127.926C1.51686 125.226 0 121.564 0 117.746L0 40.9598ZM28.7946 64.9554C28.7946 59.8642 30.8171 54.9815 34.4171 51.3814C38.0172 47.7814 42.8999 45.7589 47.9911 45.7589C53.0823 45.7589 57.965 47.7814 61.565 51.3814C65.165 54.9815 67.1875 59.8642 67.1875 64.9554C67.1875 70.0466 65.165 74.9293 61.565 78.5293C57.965 82.1293 53.0823 84.1518 47.9911 84.1518C42.8999 84.1518 38.0172 82.1293 34.4171 78.5293C30.8171 74.9293 28.7946 70.0466 28.7946 64.9554ZM115.179 64.9554H86.3839V55.3572H115.179V64.9554ZM115.179 93.75H86.3839V84.1518H115.179V93.75ZM47.9911 93.75C42.7744 93.7533 37.6614 95.2075 33.2238 97.9501C28.7862 100.693 25.1989 104.615 22.8629 109.28L19.6955 115.596C19.3285 116.328 19.1551 117.142 19.1918 117.961C19.2285 118.779 19.474 119.574 19.9051 120.271C20.3362 120.967 20.9384 121.542 21.6544 121.94C22.3704 122.338 23.1763 122.546 23.9955 122.545H71.9866C72.805 122.545 73.6098 122.335 74.3245 121.937C75.0392 121.538 75.64 120.963 76.07 120.267C76.4999 119.57 76.7446 118.776 76.7809 117.958C76.8171 117.141 76.6437 116.327 76.277 115.596L73.1192 109.28C70.7833 104.615 67.196 100.693 62.7584 97.9501C58.3208 95.2075 53.2078 93.7533 47.9911 93.75Z" fill="#0D5457"/>
</g>
<g clip-path="url(#clip1_401_1067)">
<path fill-rule="evenodd" clip-rule="evenodd" d="M6.02679 33.5939C6.02679 29.7755 7.54365 26.1134 10.2437 23.4134C12.9437 20.7134 16.6057 19.1965 20.4241 19.1965H135.603C139.421 19.1965 143.083 20.7134 145.783 23.4134C148.483 26.1134 150 29.7755 150 33.5939V110.38C150 114.198 148.483 117.86 145.783 120.56C143.083 123.26 139.421 124.777 135.603 124.777H20.4241C16.6057 124.777 12.9437 123.26 10.2437 120.56C7.54365 117.86 6.02679 114.198 6.02679 110.38L6.02679 33.5939ZM34.8214 57.5894C34.8214 52.4982 36.8439 47.6155 40.4439 44.0155C44.044 40.4155 48.9267 38.393 54.0179 38.393C59.1091 38.393 63.9918 40.4155 67.5918 44.0155C71.1918 47.6155 73.2143 52.4982 73.2143 57.5894C73.2143 62.6806 71.1918 67.5633 67.5918 71.1633C63.9918 74.7634 59.1091 76.7859 54.0179 76.7859C48.9267 76.7859 44.044 74.7634 40.4439 71.1633C36.8439 67.5633 34.8214 62.6806 34.8214 57.5894ZM121.205 57.5894H92.4107V47.9912H121.205V57.5894ZM121.205 86.3841H92.4107V76.7859H121.205V86.3841ZM54.0179 86.3841C48.8012 86.3874 43.6882 87.8416 39.2506 90.5841C34.813 93.3267 31.2257 97.2495 28.8897 101.914L25.7223 108.23C25.3553 108.962 25.1819 109.776 25.2186 110.595C25.2553 111.413 25.5008 112.208 25.9319 112.905C26.363 113.602 26.9651 114.176 27.6812 114.574C28.3972 114.972 29.2031 115.18 30.0223 115.179H78.0134C78.8318 115.179 79.6366 114.969 80.3513 114.571C81.066 114.172 81.6668 113.597 82.0967 112.901C82.5267 112.204 82.7714 111.41 82.8076 110.592C82.8439 109.775 82.6704 108.961 82.3038 108.23L79.146 101.914C76.8101 97.2495 73.2227 93.3267 68.7851 90.5841C64.3475 87.8416 59.2346 86.3874 54.0179 86.3841Z" fill="#3DA3A7"/>
</g>
<defs>
<filter id="filter0_d_401_1067" x="0" y="7.36597" width="157.973" height="147.973" filterUnits="userSpaceOnUse" color-interpolation-filters="sRGB">
<feFlood flood-opacity="0" result="BackgroundImageFix"/>
<feColorMatrix in="SourceAlpha" type="matrix" values="0 0 0 0 0 0 0 0 0 0 0 0 0 0 0 0 0 0 127 0" result="hardAlpha"/>
<feOffset dx="12" dy="2"/>
<feGaussianBlur stdDeviation="1"/>
<feColorMatrix type="matrix" values="0 0 0 0 0 0 0 0 0 0 0 0 0 0 0 0 0 0 0.25 0"/>
<feBlend mode="normal" in2="BackgroundImageFix" result="effect1_dropShadow_401_1067"/>
<feBlend mode="normal" in="SourceGraphic" in2="effect1_dropShadow_401_1067" result="shape"/>
</filter>
<clipPath id="clip0_401_1067">
<rect width="143.973" height="143.973" fill="white" transform="translate(0 7.36597)"/>
</clipPath>
<clipPath id="clip1_401_1067">
<rect width="143.973" height="143.973" fill="white" transform="translate(6.02679)"/>
</clipPath>
</defs>
</svg>
