<svg width="154" height="153" viewBox="0 0 154 153" fill="none" xmlns="http://www.w3.org/2000/svg">
<g filter="url(#filter0_d_401_1076)">
<path d="M66.5824 61.9087C66.5824 71.9565 58.4715 80.0675 48.4236 80.0675C38.3758 80.0675 30.2649 71.9565 30.2649 61.9087C30.2649 51.8608 38.3758 43.7499 48.4236 43.7499C58.4715 43.7499 66.5824 51.8608 66.5824 61.9087ZM84.7412 128.491H12.1061V116.385C12.1061 103.008 28.3885 92.1733 48.4236 92.1733C68.4588 92.1733 84.7412 103.008 84.7412 116.385M42.3707 61.9087C42.3707 65.2378 45.0945 67.9616 48.4236 67.9616C51.7528 67.9616 54.4766 65.2378 54.4766 61.9087C54.4766 58.5796 51.7528 55.8558 48.4236 55.8558C45.0945 55.8558 42.3707 58.5796 42.3707 61.9087ZM24.2119 116.385H72.6354C72.6354 109.727 61.8006 104.279 48.4236 104.279C35.0467 104.279 24.2119 109.727 24.2119 116.385ZM133.165 80.0675V92.1733H78.6883V80.0675M133.165 55.8558V67.9616H78.6883V55.8558M133.165 31.644V43.7499H78.6883V31.644H133.165Z" fill="#106E72"/>
</g>
<path d="M71.3122 54.4763C71.3122 64.5242 63.2012 72.6351 53.1534 72.6351C43.1055 72.6351 34.9946 64.5242 34.9946 54.4763C34.9946 44.4284 43.1055 36.3175 53.1534 36.3175C63.2012 36.3175 71.3122 44.4284 71.3122 54.4763ZM89.4709 121.059H16.8358V108.953C16.8358 95.5757 33.1182 84.741 53.1534 84.741C73.1886 84.741 89.4709 95.5757 89.4709 108.953M47.1005 54.4763C47.1005 57.8054 49.8243 60.5292 53.1534 60.5292C56.4825 60.5292 59.2063 57.8054 59.2063 54.4763C59.2063 51.1472 56.4825 48.4234 53.1534 48.4234C49.8243 48.4234 47.1005 51.1472 47.1005 54.4763ZM28.9417 108.953H77.3651C77.3651 102.294 66.5304 96.8468 53.1534 96.8468C39.7764 96.8468 28.9417 102.294 28.9417 108.953ZM137.894 72.6351V84.741H83.418V72.6351M137.894 48.4234V60.5292H83.418V48.4234M137.894 24.2117V36.3175H83.418V24.2117H137.894Z" fill="#3DA3A7"/>
<defs>
<filter id="filter0_d_401_1076" x="0" y="0.917521" width="165.785" height="162.3" filterUnits="userSpaceOnUse" color-interpolation-filters="sRGB">
<feFlood flood-opacity="0" result="BackgroundImageFix"/>
<feColorMatrix in="SourceAlpha" type="matrix" values="0 0 0 0 0 0 0 0 0 0 0 0 0 0 0 0 0 0 127 0" result="hardAlpha"/>
<feOffset dx="12" dy="2"/>
<feGaussianBlur stdDeviation="4.25743"/>
<feColorMatrix type="matrix" values="0 0 0 0 0 0 0 0 0 0 0 0 0 0 0 0 0 0 0.25 0"/>
<feBlend mode="normal" in2="BackgroundImageFix" result="effect1_dropShadow_401_1076"/>
<feBlend mode="normal" in="SourceGraphic" in2="effect1_dropShadow_401_1076" result="shape"/>
</filter>
</defs>
</svg>
