<svg width="1019" height="194" viewBox="0 0 1019 194" fill="none" xmlns="http://www.w3.org/2000/svg">
<g filter="url(#filter0_n_254_64)">
<rect x="3" y="3" width="1013" height="188" fill="#D5CCC6"/>
</g>
<line x1="970.65" y1="2.27869" x2="1015.37" y2="2.27869" stroke="black" stroke-width="3"/>
<line x1="1016.87" y1="3" x2="1016.87" y2="12.7308" stroke="black" stroke-width="3"/>
<line y1="-1.5" x2="44.7158" y2="-1.5" transform="matrix(1 0 0 -1 968.86 190.221)" stroke="black" stroke-width="3"/>
<line y1="-1.5" x2="9.73085" y2="-1.5" transform="matrix(-9.33941e-08 -1 -1 2.04584e-08 1013.58 191)" stroke="black" stroke-width="3"/>
<line x1="47.7158" y1="190.943" x2="3.00002" y2="190.943" stroke="black" stroke-width="3"/>
<line x1="1.5" y1="190.221" x2="1.5" y2="180.491" stroke="black" stroke-width="3"/>
<line y1="-1.5" x2="44.7158" y2="-1.5" transform="matrix(-1 0 0 1 47.7158 3.77869)" stroke="black" stroke-width="3"/>
<line y1="-1.5" x2="9.73085" y2="-1.5" transform="matrix(8.92737e-08 1 1 -2.14027e-08 3 3)" stroke="black" stroke-width="3"/>
<g filter="url(#filter1_d_254_64)">
<rect x="315" y="35" width="491" height="50" rx="15" fill="black"/>
<rect x="315" y="35" width="354" height="50" rx="15" fill="#3DA3A7"/>
<path d="M359.989 49.7143H361.917V51.6429H359.989V49.7143ZM361.917 49.7143H363.846V51.6429H361.917V49.7143ZM365.774 49.7143H367.703V51.6429H365.774V49.7143ZM367.703 49.7143H369.631V51.6429H367.703V49.7143ZM367.703 51.6429H369.631V53.5714H367.703V51.6429ZM367.703 53.5714H369.631V55.5H367.703V53.5714ZM369.631 53.5714H371.56V55.5H369.631V53.5714ZM369.631 51.6429H371.56V53.5714H369.631V51.6429ZM365.774 51.6429H367.703V53.5714H365.774V51.6429ZM361.917 51.6429H363.846V53.5714H361.917V51.6429ZM359.989 51.6429H361.917V53.5714H359.989V51.6429ZM358.06 51.6429H359.989V53.5714H358.06V51.6429ZM358.06 53.5714H359.989V55.5H358.06V53.5714ZM359.989 53.5714H361.917V55.5H359.989V53.5714ZM359.989 55.5H361.917V57.4286H359.989V55.5ZM358.06 55.5H359.989V57.4286H358.06V55.5ZM358.06 57.4286H359.989V59.3571H358.06V57.4286ZM358.06 59.3571H359.989V61.2857H358.06V59.3571ZM359.989 59.3571H361.917V61.2857H359.989V59.3571ZM359.989 57.4286H361.917V59.3571H359.989V57.4286ZM361.917 57.4286H363.846V59.3571H361.917V57.4286ZM361.917 59.3571H363.846V61.2857H361.917V59.3571ZM365.774 59.3571H367.703V61.2857H365.774V59.3571ZM365.774 57.4286H367.703V59.3571H365.774V57.4286ZM367.703 57.4286H369.631V59.3571H367.703V57.4286ZM367.703 59.3571H369.631V61.2857H367.703V59.3571ZM369.631 59.3571H371.56V61.2857H369.631V59.3571ZM369.631 61.2857H371.56V63.2143H369.631V61.2857ZM369.631 63.2143H371.56V65.1429H369.631V63.2143ZM367.703 63.2143H369.631V65.1429H367.703V63.2143ZM367.703 61.2857H369.631V63.2143H367.703V61.2857ZM369.631 65.1429H371.56V67.0714H369.631V65.1429ZM367.703 65.1429H369.631V67.0714H367.703V65.1429ZM367.703 67.0714H369.631V69H367.703V67.0714ZM365.774 67.0714H367.703V69H365.774V67.0714ZM365.774 65.1429H367.703V67.0714H365.774V65.1429ZM361.917 65.1429H363.846V67.0714H361.917V65.1429ZM361.917 67.0714H363.846V69H361.917V67.0714ZM359.989 67.0714H361.917V69H359.989V67.0714ZM359.989 65.1429H361.917V67.0714H359.989V65.1429ZM358.06 65.1429H359.989V67.0714H358.06V65.1429ZM358.06 63.2143H359.989V65.1429H358.06V63.2143ZM358.06 61.2857H359.989V63.2143H358.06V61.2857ZM359.989 61.2857H361.917V63.2143H359.989V61.2857ZM359.989 63.2143H361.917V65.1429H359.989V63.2143ZM363.846 51.6429H365.774V53.5714H363.846V51.6429ZM363.846 49.7143H365.774V51.6429H363.846V49.7143ZM363.846 57.4286H365.774V59.3571H363.846V57.4286ZM363.846 59.3571H365.774V61.2857H363.846V59.3571ZM363.846 65.1429H365.774V67.0714H363.846V65.1429ZM363.846 67.0714H365.774V69H363.846V67.0714ZM386.505 69H384.576V67.0714H386.505V69ZM384.576 69H382.648V67.0714H384.576V69ZM380.719 69H378.791V67.0714H380.719V69ZM378.791 69H376.862V67.0714H378.791V69ZM378.791 67.0714H376.862V65.1429H378.791V67.0714ZM378.791 65.1429H376.862V63.2143H378.791V65.1429ZM376.862 65.1429H374.934V63.2143H376.862V65.1429ZM376.862 67.0714H374.934V65.1429H376.862V67.0714ZM380.719 67.0714H378.791V65.1429H380.719V67.0714ZM384.576 67.0714H382.648V65.1429H384.576V67.0714ZM386.505 67.0714H384.576V65.1429H386.505V67.0714ZM388.434 67.0714H386.505V65.1429H388.434V67.0714ZM388.434 65.1429H386.505V63.2143H388.434V65.1429ZM386.505 65.1429H384.576V63.2143H386.505V65.1429ZM386.505 63.2143H384.576V61.2857H386.505V63.2143ZM388.434 63.2143H386.505V61.2857H388.434V63.2143ZM388.434 61.2857H386.505V59.3571H388.434V61.2857ZM388.434 59.3571H386.505V57.4286H388.434V59.3571ZM386.505 59.3571H384.576V57.4286H386.505V59.3571ZM386.505 61.2857H384.576V59.3571H386.505V61.2857ZM384.576 61.2857H382.648V59.3571H384.576V61.2857ZM384.576 59.3571H382.648V57.4286H384.576V59.3571ZM380.719 59.3571H378.791V57.4286H380.719V59.3571ZM380.719 61.2857H378.791V59.3571H380.719V61.2857ZM378.791 61.2857H376.862V59.3571H378.791V61.2857ZM378.791 59.3571H376.862V57.4286H378.791V59.3571ZM376.862 59.3571H374.934V57.4286H376.862V59.3571ZM376.862 57.4286H374.934V55.5H376.862V57.4286ZM376.862 55.5H374.934V53.5714H376.862V55.5ZM378.791 55.5H376.862V53.5714H378.791V55.5ZM378.791 57.4286H376.862V55.5H378.791V57.4286ZM376.862 53.5714H374.934V51.6429H376.862V53.5714ZM378.791 53.5714H376.862V51.6429H378.791V53.5714ZM378.791 51.6429H376.862V49.7143H378.791V51.6429ZM380.719 51.6429H378.791V49.7143H380.719V51.6429ZM380.719 53.5714H378.791V51.6429H380.719V53.5714ZM384.576 53.5714H382.648V51.6429H384.576V53.5714ZM384.576 51.6429H382.648V49.7143H384.576V51.6429ZM386.505 51.6429H384.576V49.7143H386.505V51.6429ZM386.505 53.5714H384.576V51.6429H386.505V53.5714ZM388.434 53.5714H386.505V51.6429H388.434V53.5714ZM388.434 55.5H386.505V53.5714H388.434V55.5ZM388.434 57.4286H386.505V55.5H388.434V57.4286ZM386.505 57.4286H384.576V55.5H386.505V57.4286ZM386.505 55.5H384.576V53.5714H386.505V55.5ZM380.719 49.7143H382.648V51.6429H380.719V49.7143ZM380.719 51.6429H382.648V53.5714H380.719V51.6429ZM380.719 57.4286H382.648V59.3571H380.719V57.4286ZM380.719 59.3571H382.648V61.2857H380.719V59.3571ZM380.719 65.1429H382.648V67.0714H380.719V65.1429ZM380.719 67.0714H382.648V69H380.719V67.0714ZM409.164 49.7143H411.093V51.6429H409.164V49.7143ZM409.164 51.6429H411.093V53.5714H409.164V51.6429ZM407.236 51.6429H409.164V53.5714H407.236V51.6429ZM407.236 53.5714H409.164V55.5H407.236V53.5714ZM405.307 53.5714H407.236V55.5H405.307V53.5714ZM405.307 55.5H407.236V57.4286H405.307V55.5ZM403.379 55.5H405.307V57.4286H403.379V55.5ZM403.379 57.4286H405.307V59.3571H403.379V57.4286ZM401.45 57.4286H403.379V59.3571H401.45V57.4286ZM401.45 59.3571H403.379V61.2857H401.45V59.3571ZM399.521 59.3571H401.45V61.2857H399.521V59.3571ZM399.521 61.2857H401.45V63.2143H399.521V61.2857ZM397.593 61.2857H399.521V63.2143H397.593V61.2857ZM397.593 63.2143H399.521V65.1429H397.593V63.2143ZM395.664 63.2143H397.593V65.1429H395.664V63.2143ZM395.664 65.1429H397.593V67.0714H395.664V65.1429ZM393.736 65.1429H395.664V67.0714H393.736V65.1429ZM393.736 67.0714H395.664V69H393.736V67.0714ZM407.236 59.3571H409.164V61.2857H407.236V59.3571ZM407.236 61.2857H409.164V63.2143H407.236V61.2857ZM405.307 61.2857H407.236V63.2143H405.307V61.2857ZM405.307 63.2143H407.236V65.1429H405.307V63.2143ZM403.379 63.2143H405.307V65.1429H403.379V63.2143ZM405.307 65.1429H407.236V67.0714H405.307V65.1429ZM407.236 65.1429H409.164V67.0714H407.236V65.1429ZM407.236 67.0714H409.164V69H407.236V67.0714ZM409.164 65.1429H411.093V67.0714H409.164V65.1429ZM409.164 63.2143H411.093V65.1429H409.164V63.2143ZM411.093 63.2143H413.021V65.1429H411.093V63.2143ZM409.164 61.2857H411.093V63.2143H409.164V61.2857ZM395.664 57.4286H397.593V59.3571H395.664V57.4286ZM395.664 55.5H397.593V57.4286H395.664V55.5ZM397.593 55.5H399.521V57.4286H397.593V55.5ZM397.593 53.5714H399.521V55.5H397.593V53.5714ZM399.521 53.5714H401.45V55.5H399.521V53.5714ZM397.593 51.6429H399.521V53.5714H397.593V51.6429ZM395.664 51.6429H397.593V53.5714H395.664V51.6429ZM395.664 49.7143H397.593V51.6429H395.664V49.7143ZM393.736 51.6429H395.664V53.5714H393.736V51.6429ZM393.736 53.5714H395.664V55.5H393.736V53.5714ZM393.736 55.5H395.664V57.4286H393.736V55.5ZM391.807 53.5714H393.736V55.5H391.807V53.5714Z" fill="white"/>
</g>
<g filter="url(#filter2_d_254_64)">
<rect x="312" y="110" width="491" height="50" rx="15" fill="#3DA3A7"/>
<rect x="646" y="110" width="157" height="50" rx="15" fill="black"/>
<path d="M709.427 127.643H711.356V129.571H709.427V127.643ZM711.356 127.643H713.284V129.571H711.356V127.643ZM711.356 129.571H713.284V131.5H711.356V129.571ZM709.427 129.571H711.356V131.5H709.427V129.571ZM711.356 125.714H713.284V127.643H711.356V125.714ZM713.284 127.643H715.213V129.571H713.284V127.643ZM715.213 127.643H717.141V129.571H715.213V127.643ZM717.141 127.643H719.07V129.571H717.141V127.643ZM719.07 127.643H720.999V129.571H719.07V127.643ZM719.07 125.714H720.999V127.643H719.07V125.714ZM717.141 125.714H719.07V127.643H717.141V125.714ZM715.213 125.714H717.141V127.643H715.213V125.714ZM713.284 125.714H715.213V127.643H713.284V125.714ZM720.999 127.643H722.927V129.571H720.999V127.643ZM720.999 129.571H722.927V131.5H720.999V129.571ZM720.999 131.5H722.927V133.429H720.999V131.5ZM719.07 131.5H720.999V133.429H719.07V131.5ZM719.07 129.571H720.999V131.5H719.07V129.571ZM719.07 133.429H720.999V135.357H719.07V133.429ZM717.141 133.429H719.07V135.357H717.141V133.429ZM715.213 133.429H717.141V135.357H715.213V133.429ZM713.284 133.429H715.213V135.357H713.284V133.429ZM713.284 135.357H715.213V137.286H713.284V135.357ZM715.213 135.357H717.141V137.286H715.213V135.357ZM717.141 135.357H719.07V137.286H717.141V135.357ZM719.07 135.357H720.999V137.286H719.07V135.357ZM719.07 137.286H720.999V139.214H719.07V137.286ZM719.07 139.214H720.999V141.143H719.07V139.214ZM720.999 139.214H722.927V141.143H720.999V139.214ZM720.999 137.286H722.927V139.214H720.999V137.286ZM720.999 141.143H722.927V143.071H720.999V141.143ZM719.07 141.143H720.999V143.071H719.07V141.143ZM719.07 143.071H720.999V145H719.07V143.071ZM717.141 141.143H719.07V143.071H717.141V141.143ZM715.213 141.143H717.141V143.071H715.213V141.143ZM713.284 143.071H715.213V145H713.284V143.071ZM711.356 143.071H713.284V145H711.356V143.071ZM711.356 141.143H713.284V143.071H711.356V141.143ZM713.284 141.143H715.213V143.071H713.284V141.143ZM715.213 143.071H717.141V145H715.213V143.071ZM717.141 143.071H719.07V145H717.141V143.071ZM711.356 139.214H713.284V141.143H711.356V139.214ZM709.427 139.214H711.356V141.143H709.427V139.214ZM709.427 141.143H711.356V143.071H709.427V141.143ZM730.158 141.143H732.086V143.071H730.158V141.143ZM730.158 143.071H732.086V145H730.158V143.071ZM728.229 143.071H730.158V145H728.229V143.071ZM728.229 141.143H730.158V143.071H728.229V141.143ZM728.229 139.214H730.158V141.143H728.229V139.214ZM728.229 137.286H730.158V139.214H728.229V137.286ZM728.229 135.357H730.158V137.286H728.229V135.357ZM728.229 133.429H730.158V135.357H728.229V133.429ZM728.229 131.5H730.158V133.429H728.229V131.5ZM728.229 129.571H730.158V131.5H728.229V129.571ZM730.158 131.5H732.086V133.429H730.158V131.5ZM730.158 133.429H732.086V135.357H730.158V133.429ZM730.158 135.357H732.086V137.286H730.158V135.357ZM730.158 137.286H732.086V139.214H730.158V137.286ZM730.158 139.214H732.086V141.143H730.158V139.214ZM730.158 129.571H732.086V131.5H730.158V129.571ZM730.158 127.643H732.086V129.571H730.158V127.643ZM728.229 125.714H730.158V127.643H728.229V125.714ZM730.158 125.714H732.086V127.643H730.158V125.714ZM728.229 127.643H730.158V129.571H728.229V127.643ZM726.301 125.714H728.229V127.643H726.301V125.714ZM726.301 127.643H728.229V129.571H726.301V127.643ZM752.797 125.714H754.726V127.643H752.797V125.714ZM752.797 127.643H754.726V129.571H752.797V127.643ZM750.869 127.643H752.797V129.571H750.869V127.643ZM750.869 129.571H752.797V131.5H750.869V129.571ZM748.94 129.571H750.869V131.5H748.94V129.571ZM748.94 131.5H750.869V133.429H748.94V131.5ZM747.011 131.5H748.94V133.429H747.011V131.5ZM747.011 133.429H748.94V135.357H747.011V133.429ZM745.083 133.429H747.011V135.357H745.083V133.429ZM745.083 135.357H747.011V137.286H745.083V135.357ZM743.154 135.357H745.083V137.286H743.154V135.357ZM743.154 137.286H745.083V139.214H743.154V137.286ZM741.226 137.286H743.154V139.214H741.226V137.286ZM741.226 139.214H743.154V141.143H741.226V139.214ZM739.297 139.214H741.226V141.143H739.297V139.214ZM739.297 141.143H741.226V143.071H739.297V141.143ZM737.369 141.143H739.297V143.071H737.369V141.143ZM737.369 143.071H739.297V145H737.369V143.071ZM750.869 135.357H752.797V137.286H750.869V135.357ZM750.869 137.286H752.797V139.214H750.869V137.286ZM748.94 137.286H750.869V139.214H748.94V137.286ZM748.94 139.214H750.869V141.143H748.94V139.214ZM747.011 139.214H748.94V141.143H747.011V139.214ZM748.94 141.143H750.869V143.071H748.94V141.143ZM750.869 141.143H752.797V143.071H750.869V141.143ZM750.869 143.071H752.797V145H750.869V143.071ZM752.797 141.143H754.726V143.071H752.797V141.143ZM752.797 139.214H754.726V141.143H752.797V139.214ZM754.726 139.214H756.654V141.143H754.726V139.214ZM752.797 137.286H754.726V139.214H752.797V137.286ZM739.297 133.429H741.226V135.357H739.297V133.429ZM739.297 131.5H741.226V133.429H739.297V131.5ZM741.226 131.5H743.154V133.429H741.226V131.5ZM741.226 129.571H743.154V131.5H741.226V129.571ZM743.154 129.571H745.083V131.5H743.154V129.571ZM741.226 127.643H743.154V129.571H741.226V127.643ZM739.297 127.643H741.226V129.571H739.297V127.643ZM739.297 125.714H741.226V127.643H739.297V125.714ZM737.369 127.643H739.297V129.571H737.369V127.643ZM737.369 129.571H739.297V131.5H737.369V129.571ZM737.369 131.5H739.297V133.429H737.369V131.5ZM735.44 129.571H737.369V131.5H735.44V129.571Z" fill="white"/>
</g>
<path d="M84.1429 51.4286H86.7143V54H84.1429V51.4286ZM81.5714 51.4286H84.1429V54H81.5714V51.4286ZM81.5714 54H84.1429V56.5714H81.5714V54ZM84.1429 54H86.7143V56.5714H84.1429V54ZM86.7143 51.4286H89.2857V54H86.7143V51.4286ZM89.2857 51.4286H91.8571V54H89.2857V51.4286ZM91.8571 51.4286H94.4286V54H91.8571V51.4286ZM91.8571 54H94.4286V56.5714H91.8571V54ZM89.2857 54H91.8571V56.5714H89.2857V54ZM94.4286 54H97V56.5714H94.4286V54ZM94.4286 56.5714H97V59.1429H94.4286V56.5714ZM94.4286 64.2857H97V66.8571H94.4286V64.2857ZM94.4286 66.8571H97V69.4286H94.4286V66.8571ZM91.8571 66.8571H94.4286V69.4286H91.8571V66.8571ZM91.8571 64.2857H94.4286V66.8571H91.8571V64.2857ZM91.8571 56.5714H94.4286V59.1429H91.8571V56.5714ZM89.2857 66.8571H91.8571V69.4286H89.2857V66.8571ZM91.8571 69.4286H94.4286V72H91.8571V69.4286ZM89.2857 69.4286H91.8571V72H89.2857V69.4286ZM86.7143 69.4286H89.2857V72H86.7143V69.4286ZM84.1429 69.4286H86.7143V72H84.1429V69.4286ZM81.5714 69.4286H84.1429V72H81.5714V69.4286ZM81.5714 66.8571H84.1429V69.4286H81.5714V66.8571ZM84.1429 66.8571H86.7143V69.4286H84.1429V66.8571ZM81.5714 64.2857H84.1429V66.8571H81.5714V64.2857ZM79 66.8571H81.5714V69.4286H79V66.8571ZM79 64.2857H81.5714V66.8571H79V64.2857ZM79 61.7143H81.5714V64.2857H79V61.7143ZM79 59.1429H81.5714V61.7143H79V59.1429ZM79 56.5714H81.5714V59.1429H79V56.5714ZM79 54H81.5714V56.5714H79V54ZM81.5714 56.5714H84.1429V59.1429H81.5714V56.5714ZM81.5714 59.1429H84.1429V61.7143H81.5714V59.1429ZM81.5714 61.7143H84.1429V64.2857H81.5714V61.7143ZM86.7143 66.8571H89.2857V69.4286H86.7143V66.8571ZM86.7143 54H89.2857V56.5714H86.7143V54ZM115.658 69.4286H113.087V66.8571H115.658V69.4286ZM115.658 72H113.087V69.4286H115.658V72ZM113.087 72H110.515V69.4286H113.087V72ZM113.087 69.4286H110.515V66.8571H113.087V69.4286ZM113.087 66.8571H110.515V64.2857H113.087V66.8571ZM113.087 64.2857H110.515V61.7143H113.087V64.2857ZM113.087 61.7143H110.515V59.1429H113.087V61.7143ZM115.658 61.7143H113.087V59.1429H115.658V61.7143ZM115.658 64.2857H113.087V61.7143H115.658V64.2857ZM115.658 66.8571H113.087V64.2857H115.658V66.8571ZM115.658 59.1429H113.087V56.5714H115.658V59.1429ZM113.087 59.1429H110.515V56.5714H113.087V59.1429ZM113.087 56.5714H110.515V54H113.087V56.5714ZM113.087 54H110.515V51.4286H113.087V54ZM115.658 54H113.087V51.4286H115.658V54ZM115.658 56.5714H113.087V54H115.658V56.5714ZM102.801 54H100.23V51.4286H102.801V54ZM100.23 54H97.6581V51.4286H100.23V54ZM100.23 56.5714H97.6581V54H100.23V56.5714ZM100.23 59.1429H97.6581V56.5714H100.23V59.1429ZM100.23 61.7143H97.6581V59.1429H100.23V61.7143ZM100.23 64.2857H97.6581V61.7143H100.23V64.2857ZM100.23 66.8571H97.6581V64.2857H100.23V66.8571ZM100.23 69.4286H97.6581V66.8571H100.23V69.4286ZM102.801 64.2857H100.23V61.7143H102.801V64.2857ZM102.801 61.7143H100.23V59.1429H102.801V61.7143ZM102.801 59.1429H100.23V56.5714H102.801V59.1429ZM102.801 56.5714H100.23V54H102.801V56.5714ZM102.801 66.8571H100.23V64.2857H102.801V66.8571ZM110.515 69.4286H107.944V66.8571H110.515V69.4286ZM107.944 69.4286H105.372V66.8571H107.944V69.4286ZM105.372 69.4286H102.801V66.8571H105.372V69.4286ZM105.372 72H102.801V69.4286H105.372V72ZM102.801 72H100.23V69.4286H102.801V72ZM102.801 69.4286H100.23V66.8571H102.801V69.4286ZM107.944 72H105.372V69.4286H107.944V72ZM116.316 54H118.888V56.5714H116.316V54ZM116.316 51.4286H118.888V54H116.316V51.4286ZM118.888 51.4286H121.459V54H118.888V51.4286ZM118.888 54H121.459V56.5714H118.888V54ZM118.888 56.5714H121.459V59.1429H118.888V56.5714ZM118.888 59.1429H121.459V61.7143H118.888V59.1429ZM118.888 61.7143H121.459V64.2857H118.888V61.7143ZM116.316 61.7143H118.888V64.2857H116.316V61.7143ZM116.316 59.1429H118.888V61.7143H116.316V59.1429ZM116.316 56.5714H118.888V59.1429H116.316V56.5714ZM116.316 64.2857H118.888V66.8571H116.316V64.2857ZM118.888 64.2857H121.459V66.8571H118.888V64.2857ZM118.888 66.8571H121.459V69.4286H118.888V66.8571ZM118.888 69.4286H121.459V72H118.888V69.4286ZM116.316 69.4286H118.888V72H116.316V69.4286ZM116.316 66.8571H118.888V69.4286H116.316V66.8571ZM121.459 54H124.031V56.5714H121.459V54ZM124.031 54H126.602V56.5714H124.031V54ZM126.602 54H129.173V56.5714H126.602V54ZM126.602 51.4286H129.173V54H126.602V51.4286ZM124.031 51.4286H126.602V54H124.031V51.4286ZM121.459 56.5714H124.031V59.1429H121.459V56.5714ZM129.173 54H131.745V56.5714H129.173V54ZM126.602 56.5714H129.173V59.1429H126.602V56.5714ZM132.396 54H134.968V56.5714H132.396V54ZM132.396 51.4286H134.968V54H132.396V51.4286ZM134.968 51.4286H137.539V54H134.968V51.4286ZM134.968 54H137.539V56.5714H134.968V54ZM134.968 56.5714H137.539V59.1429H134.968V56.5714ZM134.968 59.1429H137.539V61.7143H134.968V59.1429ZM134.968 61.7143H137.539V64.2857H134.968V61.7143ZM132.396 61.7143H134.968V64.2857H132.396V61.7143ZM132.396 59.1429H134.968V61.7143H132.396V59.1429ZM132.396 56.5714H134.968V59.1429H132.396V56.5714ZM132.396 64.2857H134.968V66.8571H132.396V64.2857ZM134.968 64.2857H137.539V66.8571H134.968V64.2857ZM134.968 66.8571H137.539V69.4286H134.968V66.8571ZM134.968 69.4286H137.539V72H134.968V69.4286ZM132.396 69.4286H134.968V72H132.396V69.4286ZM132.396 66.8571H134.968V69.4286H132.396V66.8571ZM137.539 54H140.111V56.5714H137.539V54ZM140.111 54H142.682V56.5714H140.111V54ZM142.682 54H145.253V56.5714H142.682V54ZM142.682 51.4286H145.253V54H142.682V51.4286ZM140.111 51.4286H142.682V54H140.111V51.4286ZM137.539 56.5714H140.111V59.1429H137.539V56.5714ZM145.253 54H147.825V56.5714H145.253V54ZM142.682 56.5714H145.253V59.1429H142.682V56.5714ZM153.619 51.4286H156.191V54H153.619V51.4286ZM151.048 51.4286H153.619V54H151.048V51.4286ZM151.048 54H153.619V56.5714H151.048V54ZM153.619 54H156.191V56.5714H153.619V54ZM156.191 51.4286H158.762V54H156.191V51.4286ZM158.762 51.4286H161.333V54H158.762V51.4286ZM161.333 51.4286H163.905V54H161.333V51.4286ZM161.333 54H163.905V56.5714H161.333V54ZM158.762 54H161.333V56.5714H158.762V54ZM163.905 54H166.476V56.5714H163.905V54ZM163.905 56.5714H166.476V59.1429H163.905V56.5714ZM163.905 66.8571H166.476V69.4286H163.905V66.8571ZM161.333 66.8571H163.905V69.4286H161.333V66.8571ZM161.333 56.5714H163.905V59.1429H161.333V56.5714ZM158.762 66.8571H161.333V69.4286H158.762V66.8571ZM161.333 69.4286H163.905V72H161.333V69.4286ZM158.762 69.4286H161.333V72H158.762V69.4286ZM156.191 69.4286H158.762V72H156.191V69.4286ZM153.619 69.4286H156.191V72H153.619V69.4286ZM151.048 69.4286H153.619V72H151.048V69.4286ZM151.048 66.8571H153.619V69.4286H151.048V66.8571ZM153.619 66.8571H156.191V69.4286H153.619V66.8571ZM151.048 64.2857H153.619V66.8571H151.048V64.2857ZM148.476 66.8571H151.048V69.4286H148.476V66.8571ZM148.476 64.2857H151.048V66.8571H148.476V64.2857ZM148.476 61.7143H151.048V64.2857H148.476V61.7143ZM148.476 59.1429H151.048V61.7143H148.476V59.1429ZM148.476 56.5714H151.048V59.1429H148.476V56.5714ZM148.476 54H151.048V56.5714H148.476V54ZM151.048 56.5714H153.619V59.1429H151.048V56.5714ZM151.048 59.1429H153.619V61.7143H151.048V59.1429ZM151.048 61.7143H153.619V64.2857H151.048V61.7143ZM156.191 66.8571H158.762V69.4286H156.191V66.8571ZM156.191 54H158.762V56.5714H156.191V54ZM161.333 59.1429H163.905V61.7143H161.333V59.1429ZM163.905 59.1429H166.476V61.7143H163.905V59.1429ZM153.619 61.7143H156.191V64.2857H153.619V61.7143ZM156.191 61.7143H158.762V64.2857H156.191V61.7143ZM158.762 61.7143H161.333V64.2857H158.762V61.7143ZM161.333 61.7143H163.905V64.2857H161.333V61.7143ZM163.905 61.7143H166.476V64.2857H163.905V61.7143ZM158.762 59.1429H161.333V61.7143H158.762V59.1429ZM156.191 59.1429H158.762V61.7143H156.191V59.1429ZM153.619 59.1429H156.191V61.7143H153.619V59.1429ZM167.134 54H169.706V56.5714H167.134V54ZM167.134 51.4286H169.706V54H167.134V51.4286ZM169.706 51.4286H172.277V54H169.706V51.4286ZM169.706 54H172.277V56.5714H169.706V54ZM169.706 56.5714H172.277V59.1429H169.706V56.5714ZM169.706 59.1429H172.277V61.7143H169.706V59.1429ZM169.706 61.7143H172.277V64.2857H169.706V61.7143ZM167.134 61.7143H169.706V64.2857H167.134V61.7143ZM167.134 59.1429H169.706V61.7143H167.134V59.1429ZM167.134 56.5714H169.706V59.1429H167.134V56.5714ZM167.134 64.2857H169.706V66.8571H167.134V64.2857ZM169.706 64.2857H172.277V66.8571H169.706V64.2857ZM169.706 66.8571H172.277V69.4286H169.706V66.8571ZM169.706 69.4286H172.277V72H169.706V69.4286ZM167.134 69.4286H169.706V72H167.134V69.4286ZM167.134 66.8571H169.706V69.4286H167.134V66.8571ZM179.992 69.4286H182.563V72H179.992V69.4286ZM182.563 69.4286H185.134V72H182.563V69.4286ZM182.563 66.8571H185.134V69.4286H182.563V66.8571ZM182.563 64.2857H185.134V66.8571H182.563V64.2857ZM182.563 61.7143H185.134V64.2857H182.563V61.7143ZM182.563 59.1429H185.134V61.7143H182.563V59.1429ZM182.563 56.5714H185.134V59.1429H182.563V56.5714ZM182.563 54H185.134V56.5714H182.563V54ZM179.992 59.1429H182.563V61.7143H179.992V59.1429ZM179.992 61.7143H182.563V64.2857H179.992V61.7143ZM179.992 64.2857H182.563V66.8571H179.992V64.2857ZM179.992 66.8571H182.563V69.4286H179.992V66.8571ZM179.992 56.5714H182.563V59.1429H179.992V56.5714ZM172.277 54H174.849V56.5714H172.277V54ZM174.849 54H177.42V56.5714H174.849V54ZM177.42 54H179.992V56.5714H177.42V54ZM177.42 51.4286H179.992V54H177.42V51.4286ZM179.992 51.4286H182.563V54H179.992V51.4286ZM179.992 54H182.563V56.5714H179.992V54ZM174.849 51.4286H177.42V54H174.849V51.4286ZM196.078 66.8571H198.65V69.4286H196.078V66.8571ZM196.078 69.4286H198.65V72H196.078V69.4286ZM193.507 69.4286H196.078V72H193.507V69.4286ZM193.507 66.8571H196.078V69.4286H193.507V66.8571ZM190.935 69.4286H193.507V72H190.935V69.4286ZM190.935 66.8571H193.507V69.4286H190.935V66.8571ZM188.364 66.8571H190.935V69.4286H188.364V66.8571ZM188.364 64.2857H190.935V66.8571H188.364V64.2857ZM188.364 61.7143H190.935V64.2857H188.364V61.7143ZM188.364 59.1429H190.935V61.7143H188.364V59.1429ZM188.364 56.5714H190.935V59.1429H188.364V56.5714ZM188.364 54H190.935V56.5714H188.364V54ZM190.935 61.7143H193.507V64.2857H190.935V61.7143ZM190.935 64.2857H193.507V66.8571H190.935V64.2857ZM190.935 59.1429H193.507V61.7143H190.935V59.1429ZM190.935 56.5714H193.507V59.1429H190.935V56.5714ZM190.935 46.2857H193.507V48.8571H190.935V46.2857ZM190.935 48.8571H193.507V51.4286H190.935V48.8571ZM190.935 51.4286H193.507V54H190.935V51.4286ZM190.935 54H193.507V56.5714H190.935V54ZM188.364 51.4286H190.935V54H188.364V51.4286ZM185.793 54H188.364V56.5714H185.793V54ZM193.507 54H196.078V56.5714H193.507V54ZM196.078 54H198.65V56.5714H196.078V54ZM188.364 48.8571H190.935V51.4286H188.364V48.8571ZM185.793 56.5714H188.364V59.1429H185.793V56.5714ZM193.507 56.5714H196.078V59.1429H193.507V56.5714ZM196.078 56.5714H198.65V59.1429H196.078V56.5714ZM207.64 54H210.211V56.5714H207.64V54ZM207.64 51.4286H210.211V54H207.64V51.4286ZM210.211 51.4286H212.783V54H210.211V51.4286ZM210.211 54H212.783V56.5714H210.211V54ZM210.211 56.5714H212.783V59.1429H210.211V56.5714ZM210.211 59.1429H212.783V61.7143H210.211V59.1429ZM210.211 61.7143H212.783V64.2857H210.211V61.7143ZM207.64 61.7143H210.211V64.2857H207.64V61.7143ZM207.64 59.1429H210.211V61.7143H207.64V59.1429ZM207.64 56.5714H210.211V59.1429H207.64V56.5714ZM207.64 64.2857H210.211V66.8571H207.64V64.2857ZM210.211 64.2857H212.783V66.8571H210.211V64.2857ZM210.211 66.8571H212.783V69.4286H210.211V66.8571ZM210.211 69.4286H212.783V72H210.211V69.4286ZM207.64 69.4286H210.211V72H207.64V69.4286ZM207.64 66.8571H210.211V69.4286H207.64V66.8571ZM220.497 69.4286H223.069V72H220.497V69.4286ZM223.069 66.8571H225.64V69.4286H223.069V66.8571ZM223.069 64.2857H225.64V66.8571H223.069V64.2857ZM223.069 61.7143H225.64V64.2857H223.069V61.7143ZM223.069 59.1429H225.64V61.7143H223.069V59.1429ZM223.069 56.5714H225.64V59.1429H223.069V56.5714ZM223.069 54H225.64V56.5714H223.069V54ZM220.497 59.1429H223.069V61.7143H220.497V59.1429ZM220.497 61.7143H223.069V64.2857H220.497V61.7143ZM220.497 64.2857H223.069V66.8571H220.497V64.2857ZM220.497 66.8571H223.069V69.4286H220.497V66.8571ZM220.497 56.5714H223.069V59.1429H220.497V56.5714ZM212.783 54H215.354V56.5714H212.783V54ZM215.354 54H217.926V56.5714H215.354V54ZM217.926 54H220.497V56.5714H217.926V54ZM217.926 51.4286H220.497V54H217.926V51.4286ZM220.497 51.4286H223.069V54H220.497V51.4286ZM220.497 54H223.069V56.5714H220.497V54ZM215.354 51.4286H217.926V54H215.354V51.4286ZM212.783 69.4286H215.354V72H212.783V69.4286ZM215.354 69.4286H217.926V72H215.354V69.4286ZM217.926 69.4286H220.497V72H217.926V69.4286ZM217.926 66.8571H220.497V69.4286H217.926V66.8571ZM215.354 66.8571H217.926V69.4286H215.354V66.8571ZM212.783 66.8571H215.354V69.4286H212.783V66.8571ZM207.64 72H210.211V74.5714H207.64V72ZM210.211 72H212.783V74.5714H210.211V72ZM210.211 74.5714H212.783V77.1429H210.211V74.5714ZM207.64 74.5714H210.211V77.1429H207.64V74.5714ZM226.298 54H228.87V56.5714H226.298V54ZM226.298 51.4286H228.87V54H226.298V51.4286ZM228.87 51.4286H231.441V54H228.87V51.4286ZM228.87 54H231.441V56.5714H228.87V54ZM228.87 56.5714H231.441V59.1429H228.87V56.5714ZM228.87 59.1429H231.441V61.7143H228.87V59.1429ZM228.87 61.7143H231.441V64.2857H228.87V61.7143ZM226.298 61.7143H228.87V64.2857H226.298V61.7143ZM226.298 59.1429H228.87V61.7143H226.298V59.1429ZM226.298 56.5714H228.87V59.1429H226.298V56.5714ZM226.298 64.2857H228.87V66.8571H226.298V64.2857ZM228.87 64.2857H231.441V66.8571H228.87V64.2857ZM228.87 66.8571H231.441V69.4286H228.87V66.8571ZM228.87 69.4286H231.441V72H228.87V69.4286ZM226.298 69.4286H228.87V72H226.298V69.4286ZM226.298 66.8571H228.87V69.4286H226.298V66.8571ZM231.441 54H234.012V56.5714H231.441V54ZM234.012 54H236.584V56.5714H234.012V54ZM236.584 54H239.155V56.5714H236.584V54ZM236.584 51.4286H239.155V54H236.584V51.4286ZM234.012 51.4286H236.584V54H234.012V51.4286ZM231.441 56.5714H234.012V59.1429H231.441V56.5714ZM239.155 54H241.727V56.5714H239.155V54ZM236.584 56.5714H239.155V59.1429H236.584V56.5714ZM247.521 51.4286H250.092V54H247.521V51.4286ZM244.95 51.4286H247.521V54H244.95V51.4286ZM244.95 54H247.521V56.5714H244.95V54ZM247.521 54H250.092V56.5714H247.521V54ZM250.092 51.4286H252.664V54H250.092V51.4286ZM252.664 51.4286H255.235V54H252.664V51.4286ZM255.235 51.4286H257.807V54H255.235V51.4286ZM255.235 54H257.807V56.5714H255.235V54ZM252.664 54H255.235V56.5714H252.664V54ZM257.807 54H260.378V56.5714H257.807V54ZM257.807 56.5714H260.378V59.1429H257.807V56.5714ZM257.807 66.8571H260.378V69.4286H257.807V66.8571ZM255.235 66.8571H257.807V69.4286H255.235V66.8571ZM255.235 56.5714H257.807V59.1429H255.235V56.5714ZM252.664 66.8571H255.235V69.4286H252.664V66.8571ZM255.235 69.4286H257.807V72H255.235V69.4286ZM252.664 69.4286H255.235V72H252.664V69.4286ZM250.092 69.4286H252.664V72H250.092V69.4286ZM247.521 69.4286H250.092V72H247.521V69.4286ZM244.95 69.4286H247.521V72H244.95V69.4286ZM244.95 66.8571H247.521V69.4286H244.95V66.8571ZM247.521 66.8571H250.092V69.4286H247.521V66.8571ZM244.95 64.2857H247.521V66.8571H244.95V64.2857ZM242.378 66.8571H244.95V69.4286H242.378V66.8571ZM242.378 64.2857H244.95V66.8571H242.378V64.2857ZM242.378 61.7143H244.95V64.2857H242.378V61.7143ZM242.378 59.1429H244.95V61.7143H242.378V59.1429ZM242.378 56.5714H244.95V59.1429H242.378V56.5714ZM242.378 54H244.95V56.5714H242.378V54ZM244.95 56.5714H247.521V59.1429H244.95V56.5714ZM244.95 59.1429H247.521V61.7143H244.95V59.1429ZM244.95 61.7143H247.521V64.2857H244.95V61.7143ZM250.092 66.8571H252.664V69.4286H250.092V66.8571ZM250.092 54H252.664V56.5714H250.092V54ZM255.235 59.1429H257.807V61.7143H255.235V59.1429ZM257.807 59.1429H260.378V61.7143H257.807V59.1429ZM247.521 61.7143H250.092V64.2857H247.521V61.7143ZM250.092 61.7143H252.664V64.2857H250.092V61.7143ZM252.664 61.7143H255.235V64.2857H252.664V61.7143ZM255.235 61.7143H257.807V64.2857H255.235V61.7143ZM257.807 61.7143H260.378V64.2857H257.807V61.7143ZM252.664 59.1429H255.235V61.7143H252.664V59.1429ZM250.092 59.1429H252.664V61.7143H250.092V59.1429ZM247.521 59.1429H250.092V61.7143H247.521V59.1429ZM261.036 54H263.608V56.5714H261.036V54ZM263.608 54H266.179V56.5714H263.608V54ZM266.179 54H268.751V56.5714H266.179V54ZM268.751 54H271.322V56.5714H268.751V54ZM271.322 54H273.893V56.5714H271.322V54ZM273.893 54H276.465V56.5714H273.893V54ZM276.465 54H279.036V56.5714H276.465V54ZM276.465 51.4286H279.036V54H276.465V51.4286ZM273.893 51.4286H276.465V54H273.893V51.4286ZM271.322 51.4286H273.893V54H271.322V51.4286ZM268.751 51.4286H271.322V54H268.751V51.4286ZM266.179 51.4286H268.751V54H266.179V51.4286ZM263.608 51.4286H266.179V54H263.608V51.4286ZM261.036 51.4286H263.608V54H261.036V51.4286ZM276.465 56.5714H279.036V59.1429H276.465V56.5714ZM273.893 56.5714H276.465V59.1429H273.893V56.5714ZM271.322 56.5714H273.893V59.1429H271.322V56.5714ZM271.322 59.1429H273.893V61.7143H271.322V59.1429ZM273.893 59.1429H276.465V61.7143H273.893V59.1429ZM268.751 59.1429H271.322V61.7143H268.751V59.1429ZM271.322 61.7143H273.893V64.2857H271.322V61.7143ZM268.751 61.7143H271.322V64.2857H268.751V61.7143ZM266.179 61.7143H268.751V64.2857H266.179V61.7143ZM266.179 64.2857H268.751V66.8571H266.179V64.2857ZM263.608 64.2857H266.179V66.8571H263.608V64.2857ZM268.751 64.2857H271.322V66.8571H268.751V64.2857ZM261.036 66.8571H263.608V69.4286H261.036V66.8571ZM263.608 66.8571H266.179V69.4286H263.608V66.8571ZM266.179 66.8571H268.751V69.4286H266.179V66.8571ZM268.751 66.8571H271.322V69.4286H268.751V66.8571ZM271.322 66.8571H273.893V69.4286H271.322V66.8571ZM273.893 66.8571H276.465V69.4286H273.893V66.8571ZM273.893 69.4286H276.465V72H273.893V69.4286ZM276.465 69.4286H279.036V72H276.465V69.4286ZM276.465 66.8571H279.036V69.4286H276.465V66.8571ZM271.322 69.4286H273.893V72H271.322V69.4286ZM268.751 69.4286H271.322V72H268.751V69.4286ZM266.179 69.4286H268.751V72H266.179V69.4286ZM263.608 69.4286H266.179V72H263.608V69.4286ZM261.036 69.4286H263.608V72H261.036V69.4286Z" fill="black"/>
<path d="M841.143 126.429H843.714V129H841.143V126.429ZM838.571 126.429H841.143V129H838.571V126.429ZM838.571 129H841.143V131.571H838.571V129ZM841.143 129H843.714V131.571H841.143V129ZM843.714 126.429H846.286V129H843.714V126.429ZM846.286 126.429H848.857V129H846.286V126.429ZM848.857 126.429H851.429V129H848.857V126.429ZM848.857 129H851.429V131.571H848.857V129ZM846.286 129H848.857V131.571H846.286V129ZM848.857 134.143H851.429V136.714H848.857V134.143ZM851.429 129H854V131.571H851.429V129ZM851.429 131.571H854V134.143H851.429V131.571ZM851.429 134.143H854V136.714H851.429V134.143ZM851.429 136.714H854V139.286H851.429V136.714ZM851.429 139.286H854V141.857H851.429V139.286ZM851.429 141.857H854V144.429H851.429V141.857ZM848.857 141.857H851.429V144.429H848.857V141.857ZM848.857 139.286H851.429V141.857H848.857V139.286ZM848.857 136.714H851.429V139.286H848.857V136.714ZM848.857 131.571H851.429V134.143H848.857V131.571ZM846.286 141.857H848.857V144.429H846.286V141.857ZM848.857 144.429H851.429V147H848.857V144.429ZM846.286 144.429H848.857V147H846.286V144.429ZM843.714 144.429H846.286V147H843.714V144.429ZM841.143 144.429H843.714V147H841.143V144.429ZM838.571 144.429H841.143V147H838.571V144.429ZM838.571 141.857H841.143V144.429H838.571V141.857ZM841.143 141.857H843.714V144.429H841.143V141.857ZM838.571 139.286H841.143V141.857H838.571V139.286ZM836 141.857H838.571V144.429H836V141.857ZM836 139.286H838.571V141.857H836V139.286ZM836 136.714H838.571V139.286H836V136.714ZM836 134.143H838.571V136.714H836V134.143ZM836 131.571H838.571V134.143H836V131.571ZM836 129H838.571V131.571H836V129ZM838.571 131.571H841.143V134.143H838.571V131.571ZM838.571 134.143H841.143V136.714H838.571V134.143ZM838.571 136.714H841.143V139.286H838.571V136.714ZM843.714 141.857H846.286V144.429H843.714V141.857ZM843.714 129H846.286V131.571H843.714V129ZM864.944 141.857H867.515V144.429H864.944V141.857ZM864.944 144.429H867.515V147H864.944V144.429ZM862.372 144.429H864.944V147H862.372V144.429ZM862.372 141.857H864.944V144.429H862.372V141.857ZM859.801 144.429H862.372V147H859.801V144.429ZM859.801 141.857H862.372V144.429H859.801V141.857ZM857.23 141.857H859.801V144.429H857.23V141.857ZM857.23 139.286H859.801V141.857H857.23V139.286ZM857.23 136.714H859.801V139.286H857.23V136.714ZM857.23 134.143H859.801V136.714H857.23V134.143ZM857.23 131.571H859.801V134.143H857.23V131.571ZM857.23 129H859.801V131.571H857.23V129ZM859.801 136.714H862.372V139.286H859.801V136.714ZM859.801 139.286H862.372V141.857H859.801V139.286ZM859.801 134.143H862.372V136.714H859.801V134.143ZM859.801 131.571H862.372V134.143H859.801V131.571ZM859.801 121.286H862.372V123.857H859.801V121.286ZM859.801 123.857H862.372V126.429H859.801V123.857ZM859.801 126.429H862.372V129H859.801V126.429ZM859.801 129H862.372V131.571H859.801V129ZM857.23 126.429H859.801V129H857.23V126.429ZM854.658 129H857.23V131.571H854.658V129ZM862.372 129H864.944V131.571H862.372V129ZM864.944 129H867.515V131.571H864.944V129ZM857.23 123.857H859.801V126.429H857.23V123.857ZM854.658 131.571H857.23V134.143H854.658V131.571ZM862.372 131.571H864.944V134.143H862.372V131.571ZM864.944 131.571H867.515V134.143H864.944V131.571ZM868.16 129H870.731V131.571H868.16V129ZM868.16 126.429H870.731V129H868.16V126.429ZM870.731 126.429H873.303V129H870.731V126.429ZM870.731 129H873.303V131.571H870.731V129ZM870.731 131.571H873.303V134.143H870.731V131.571ZM870.731 134.143H873.303V136.714H870.731V134.143ZM870.731 136.714H873.303V139.286H870.731V136.714ZM868.16 136.714H870.731V139.286H868.16V136.714ZM868.16 134.143H870.731V136.714H868.16V134.143ZM868.16 131.571H870.731V134.143H868.16V131.571ZM868.16 139.286H870.731V141.857H868.16V139.286ZM870.731 139.286H873.303V141.857H870.731V139.286ZM870.731 141.857H873.303V144.429H870.731V141.857ZM870.731 144.429H873.303V147H870.731V144.429ZM868.16 144.429H870.731V147H868.16V144.429ZM868.16 141.857H870.731V144.429H868.16V141.857ZM881.017 144.429H883.589V147H881.017V144.429ZM883.589 144.429H886.16V147H883.589V144.429ZM883.589 141.857H886.16V144.429H883.589V141.857ZM883.589 139.286H886.16V141.857H883.589V139.286ZM883.589 136.714H886.16V139.286H883.589V136.714ZM883.589 134.143H886.16V136.714H883.589V134.143ZM883.589 131.571H886.16V134.143H883.589V131.571ZM883.589 129H886.16V131.571H883.589V129ZM881.017 134.143H883.589V136.714H881.017V134.143ZM881.017 136.714H883.589V139.286H881.017V136.714ZM881.017 139.286H883.589V141.857H881.017V139.286ZM881.017 141.857H883.589V144.429H881.017V141.857ZM881.017 131.571H883.589V134.143H881.017V131.571ZM873.303 129H875.874V131.571H873.303V129ZM875.874 129H878.446V131.571H875.874V129ZM878.446 129H881.017V131.571H878.446V129ZM878.446 126.429H881.017V129H878.446V126.429ZM881.017 126.429H883.589V129H881.017V126.429ZM881.017 129H883.589V131.571H881.017V129ZM875.874 126.429H878.446V129H875.874V126.429ZM868.16 121.286H870.731V123.857H868.16V121.286ZM870.731 121.286H873.303V123.857H870.731V121.286ZM870.731 123.857H873.303V126.429H870.731V123.857ZM868.16 123.857H870.731V126.429H868.16V123.857ZM891.961 126.429H894.532V129H891.961V126.429ZM889.39 126.429H891.961V129H889.39V126.429ZM889.39 129H891.961V131.571H889.39V129ZM891.961 129H894.532V131.571H891.961V129ZM894.532 126.429H897.104V129H894.532V126.429ZM897.104 126.429H899.675V129H897.104V126.429ZM899.675 126.429H902.247V129H899.675V126.429ZM899.675 129H902.247V131.571H899.675V129ZM897.104 129H899.675V131.571H897.104V129ZM902.247 129H904.818V131.571H902.247V129ZM902.247 131.571H904.818V134.143H902.247V131.571ZM902.247 141.857H904.818V144.429H902.247V141.857ZM899.675 141.857H902.247V144.429H899.675V141.857ZM899.675 131.571H902.247V134.143H899.675V131.571ZM897.104 141.857H899.675V144.429H897.104V141.857ZM899.675 144.429H902.247V147H899.675V144.429ZM897.104 144.429H899.675V147H897.104V144.429ZM894.532 144.429H897.104V147H894.532V144.429ZM891.961 144.429H894.532V147H891.961V144.429ZM889.39 144.429H891.961V147H889.39V144.429ZM889.39 141.857H891.961V144.429H889.39V141.857ZM891.961 141.857H894.532V144.429H891.961V141.857ZM889.39 139.286H891.961V141.857H889.39V139.286ZM886.818 141.857H889.39V144.429H886.818V141.857ZM886.818 139.286H889.39V141.857H886.818V139.286ZM886.818 136.714H889.39V139.286H886.818V136.714ZM886.818 134.143H889.39V136.714H886.818V134.143ZM886.818 131.571H889.39V134.143H886.818V131.571ZM886.818 129H889.39V131.571H886.818V129ZM889.39 131.571H891.961V134.143H889.39V131.571ZM889.39 134.143H891.961V136.714H889.39V134.143ZM889.39 136.714H891.961V139.286H889.39V136.714ZM894.532 141.857H897.104V144.429H894.532V141.857ZM894.532 129H897.104V131.571H894.532V129ZM899.675 134.143H902.247V136.714H899.675V134.143ZM902.247 134.143H904.818V136.714H902.247V134.143ZM891.961 136.714H894.532V139.286H891.961V136.714ZM894.532 136.714H897.104V139.286H894.532V136.714ZM897.104 136.714H899.675V139.286H897.104V136.714ZM899.675 136.714H902.247V139.286H899.675V136.714ZM902.247 136.714H904.818V139.286H902.247V136.714ZM897.104 134.143H899.675V136.714H897.104V134.143ZM894.532 134.143H897.104V136.714H894.532V134.143ZM891.961 134.143H894.532V136.714H891.961V134.143ZM905.476 129H908.048V131.571H905.476V129ZM905.476 126.429H908.048V129H905.476V126.429ZM908.048 126.429H910.619V129H908.048V126.429ZM908.048 129H910.619V131.571H908.048V129ZM908.048 131.571H910.619V134.143H908.048V131.571ZM908.048 134.143H910.619V136.714H908.048V134.143ZM908.048 136.714H910.619V139.286H908.048V136.714ZM905.476 136.714H908.048V139.286H905.476V136.714ZM905.476 134.143H908.048V136.714H905.476V134.143ZM905.476 131.571H908.048V134.143H905.476V131.571ZM905.476 139.286H908.048V141.857H905.476V139.286ZM908.048 139.286H910.619V141.857H908.048V139.286ZM908.048 141.857H910.619V144.429H908.048V141.857ZM908.048 144.429H910.619V147H908.048V144.429ZM905.476 144.429H908.048V147H905.476V144.429ZM905.476 141.857H908.048V144.429H905.476V141.857ZM910.619 129H913.191V131.571H910.619V129ZM913.191 129H915.762V131.571H913.191V129ZM915.762 129H918.333V131.571H915.762V129ZM915.762 126.429H918.333V129H915.762V126.429ZM913.191 126.429H915.762V129H913.191V126.429ZM910.619 131.571H913.191V134.143H910.619V131.571ZM918.333 129H920.905V131.571H918.333V129ZM915.762 131.571H918.333V134.143H915.762V131.571ZM921.556 129H924.128V131.571H921.556V129ZM924.128 131.571H926.699V134.143H924.128V131.571ZM921.556 131.571H924.128V134.143H921.556V131.571ZM921.556 134.143H924.128V136.714H921.556V134.143ZM924.128 134.143H926.699V136.714H924.128V134.143ZM924.128 136.714H926.699V139.286H924.128V136.714ZM926.699 136.714H929.271V139.286H926.699V136.714ZM929.271 136.714H931.842V139.286H929.271V136.714ZM931.842 134.143H934.413V136.714H931.842V134.143ZM929.271 134.143H931.842V136.714H929.271V134.143ZM926.699 134.143H929.271V136.714H926.699V134.143ZM931.842 136.714H934.413V139.286H931.842V136.714ZM934.413 136.714H936.985V139.286H934.413V136.714ZM934.413 139.286H936.985V141.857H934.413V139.286ZM931.842 139.286H934.413V141.857H931.842V139.286ZM931.842 141.857H934.413V144.429H931.842V141.857ZM934.413 141.857H936.985V144.429H934.413V141.857ZM931.842 144.429H934.413V147H931.842V144.429ZM929.271 141.857H931.842V144.429H929.271V141.857ZM926.699 141.857H929.271V144.429H926.699V141.857ZM924.128 141.857H926.699V144.429H924.128V141.857ZM921.556 141.857H924.128V144.429H921.556V141.857ZM924.128 144.429H926.699V147H924.128V144.429ZM926.699 144.429H929.271V147H926.699V144.429ZM929.271 144.429H931.842V147H929.271V144.429ZM934.413 129H936.985V131.571H934.413V129ZM931.842 129H934.413V131.571H931.842V129ZM931.842 126.429H934.413V129H931.842V126.429ZM929.271 126.429H931.842V129H929.271V126.429ZM926.699 126.429H929.271V129H926.699V126.429ZM924.128 126.429H926.699V129H924.128V126.429ZM924.128 129H926.699V131.571H924.128V129ZM926.699 129H929.271V131.571H926.699V129ZM929.271 129H931.842V131.571H929.271V129Z" fill="black"/>
<defs>
<filter id="filter0_n_254_64" x="3" y="3" width="1013" height="188" filterUnits="userSpaceOnUse" color-interpolation-filters="sRGB">
<feFlood flood-opacity="0" result="BackgroundImageFix"/>
<feBlend mode="normal" in="SourceGraphic" in2="BackgroundImageFix" result="shape"/>
<feTurbulence type="fractalNoise" baseFrequency="4 4" stitchTiles="stitch" numOctaves="3" result="noise" seed="4940" />
<feColorMatrix in="noise" type="luminanceToAlpha" result="alphaNoise" />
<feComponentTransfer in="alphaNoise" result="coloredNoise1">
<feFuncA type="discrete" tableValues="0 0 0 0 0 0 0 0 0 0 0 0 1 1 1 1 1 1 1 1 1 1 1 1 1 1 1 1 1 1 1 1 1 1 1 1 1 1 0 0 0 0 0 0 0 0 0 0 0 0 0 0 0 0 0 0 0 0 0 0 0 0 0 0 0 0 0 0 0 0 0 0 0 0 0 0 0 0 0 0 0 0 0 0 0 0 0 0 0 0 0 0 0 0 0 0 0 0 0 0 "/>
</feComponentTransfer>
<feComposite operator="in" in2="shape" in="coloredNoise1" result="noise1Clipped" />
<feFlood flood-color="rgba(0, 0, 0, 0.25)" result="color1Flood" />
<feComposite operator="in" in2="noise1Clipped" in="color1Flood" result="color1" />
<feMerge result="effect1_noise_254_64">
<feMergeNode in="shape" />
<feMergeNode in="color1" />
</feMerge>
</filter>
<filter id="filter1_d_254_64" x="309" y="35" width="499" height="58" filterUnits="userSpaceOnUse" color-interpolation-filters="sRGB">
<feFlood flood-opacity="0" result="BackgroundImageFix"/>
<feColorMatrix in="SourceAlpha" type="matrix" values="0 0 0 0 0 0 0 0 0 0 0 0 0 0 0 0 0 0 127 0" result="hardAlpha"/>
<feOffset dx="-2" dy="4"/>
<feGaussianBlur stdDeviation="2"/>
<feComposite in2="hardAlpha" operator="out"/>
<feColorMatrix type="matrix" values="0 0 0 0 0 0 0 0 0 0 0 0 0 0 0 0 0 0 0.25 0"/>
<feBlend mode="normal" in2="BackgroundImageFix" result="effect1_dropShadow_254_64"/>
<feBlend mode="normal" in="SourceGraphic" in2="effect1_dropShadow_254_64" result="shape"/>
</filter>
<filter id="filter2_d_254_64" x="310" y="110" width="499" height="58" filterUnits="userSpaceOnUse" color-interpolation-filters="sRGB">
<feFlood flood-opacity="0" result="BackgroundImageFix"/>
<feColorMatrix in="SourceAlpha" type="matrix" values="0 0 0 0 0 0 0 0 0 0 0 0 0 0 0 0 0 0 127 0" result="hardAlpha"/>
<feOffset dx="2" dy="4"/>
<feGaussianBlur stdDeviation="2"/>
<feComposite in2="hardAlpha" operator="out"/>
<feColorMatrix type="matrix" values="0 0 0 0 0 0 0 0 0 0 0 0 0 0 0 0 0 0 0.25 0"/>
<feBlend mode="normal" in2="BackgroundImageFix" result="effect1_dropShadow_254_64"/>
<feBlend mode="normal" in="SourceGraphic" in2="effect1_dropShadow_254_64" result="shape"/>
</filter>
</defs>
</svg>
