<svg width="24" height="24" viewBox="0 0 24 24" fill="none" xmlns="http://www.w3.org/2000/svg">
<path d="M9.125 17.25C6.85417 17.25 4.9325 16.4633 3.36 14.89C1.7875 13.3167 1.00083 11.395 1 9.125C0.999167 6.855 1.78583 4.93333 3.36 3.36C4.93417 1.78667 6.85583 1 9.125 1C11.3942 1 13.3163 1.78667 14.8913 3.36C16.4663 4.93333 17.2525 6.855 17.25 9.125C17.25 10.0417 17.1042 10.9062 16.8125 11.7188C16.5208 12.5312 16.125 13.25 15.625 13.875L22.625 20.875C22.8542 21.1042 22.9688 21.3958 22.9688 21.75C22.9688 22.1042 22.8542 22.3958 22.625 22.625C22.3958 22.8542 22.1042 22.9688 21.75 22.9688C21.3958 22.9688 21.1042 22.8542 20.875 22.625L13.875 15.625C13.25 16.125 12.5313 16.5208 11.7188 16.8125C10.9063 17.1042 10.0417 17.25 9.125 17.25ZM9.125 14.75C10.6875 14.75 12.0158 14.2033 13.11 13.11C14.2042 12.0167 14.7508 10.6883 14.75 9.125C14.7492 7.56167 14.2025 6.23375 13.11 5.14125C12.0175 4.04875 10.6892 3.50167 9.125 3.5C7.56083 3.49833 6.23292 4.04542 5.14125 5.14125C4.04958 6.23708 3.5025 7.565 3.5 9.125C3.4975 10.685 4.04458 12.0133 5.14125 13.11C6.23792 14.2067 7.56583 14.7533 9.125 14.75Z" fill="#001D38"/>
</svg>
